<svg xmlns="http://www.w3.org/2000/svg" viewBox="0 0 24 24" fill="white" width="24" height="24">
  <path d="M19.4 13.5c.04-.3.1-.7.1-1s-.06-.7-.1-1l2.1-1.6c.2-.2.3-.5.2-.7l-2-3.5c-.1-.3-.4-.4-.7-.3l-2.5 1c-.5-.4-1.1-.7-1.7-.9l-.4-2.7c0-.3-.3-.6-.6-.6h-4c-.3 0-.6.3-.6.6l-.4 2.7c-.6.2-1.2.5-1.7.9l-2.5-1c-.3-.1-.6 0-.7.3l-2 3.5c-.1.3-.1.6.2.7l2.1 1.6c-.04.3-.1.7-.1 1s.06.7.1 1l-2.1 1.6c-.2.2-.3.5-.2.7l2 3.5c.1.3.4.4.7.3l2.5-1c.5.4 1.1.7 1.7.9l.4 2.7c0 .3.3.6.6.6h4c.3 0 .6-.3.6-.6l.4-2.7c.6-.2 1.2-.5 1.7-.9l2.5 1c.3.1.6 0 .7-.3l2-3.5c.1-.3 0-.6-.2-.7l-2.1-1.6zM12 15.5c-1.9 0-3.5-1.6-3.5-3.5S10.1 8.5 12 8.5s3.5 1.6 3.5 3.5-1.6 3.5-3.5 3.5z"/>
</svg>